<svg width="192" height="85" viewBox="0 0 192 85" fill="none" xmlns="http://www.w3.org/2000/svg">
<path fill-rule="evenodd" clip-rule="evenodd" d="M53.0532 47.5644C51.5207 47.5644 50.28 48.7829 50.28 50.2881C50.28 51.7934 51.5229 53.0119 53.0532 53.0119H58.0431V47.5667H53.0532V47.5644ZM53.0532 51.65C52.2869 51.65 51.6666 51.0408 51.6666 50.2881C51.6666 49.5355 52.2869 48.9263 53.0532 48.9263C53.8195 48.9263 54.4398 49.5355 54.4398 50.2881C54.4398 51.0408 53.8195 51.65 53.0532 51.65Z" fill="url(#paint0_linear_3091_14062)"/>
<path fill-rule="evenodd" clip-rule="evenodd" d="M53.0533 46.4758H58.0432V36.1274C58.0432 35.5272 57.546 35.0389 56.9348 35.0389H15.9026C15.9026 34.1362 16.6461 33.406 17.5651 33.406H19.1L21.3144 31.7731H17.011C15.1728 31.7731 13.6836 33.2357 13.6836 35.0411V56.8242V62.2694C13.6836 64.0748 15.1728 65.5374 17.011 65.5374H54.7158C56.554 65.5374 58.0432 64.0748 58.0432 62.2694V54.1005H53.0533C50.9096 54.1005 49.1717 52.3937 49.1717 50.2881C49.1717 48.1826 50.9096 46.4758 53.0533 46.4758Z" fill="url(#paint1_linear_3091_14062)"/>
<path fill-rule="evenodd" clip-rule="evenodd" d="M58.0432 31.7708H52.4421L52.9598 33.4037H58.041C58.96 33.4037 59.7035 34.1362 59.7035 35.0366V46.4736L58.041 47.5622V53.0074L59.7035 51.9188V60.7104C60.7298 59.7226 61.3661 58.3451 61.3661 56.822V35.0366C61.3706 33.2357 59.8814 31.7708 58.0432 31.7708Z" fill="#5EAE46"/>
<path fill-rule="evenodd" clip-rule="evenodd" d="M40.2319 19.4626L45.8832 27.3022L28.6648 34.2482H20.1719L40.2319 19.4626ZM51.5299 34.2213H32.1495L49.3679 27.2507L51.5299 34.2213Z" fill="url(#paint2_linear_3091_14062)"/>
<path fill-rule="evenodd" clip-rule="evenodd" d="M26.391 57.093C26.505 57.8142 26.6875 58.5108 26.9315 59.1739C27.8665 57.037 29.4675 55.2271 31.5063 54.0445C31.4881 53.0813 31.5953 52.1361 31.8142 51.2289C29.9099 51.6702 28.1128 52.3489 26.4548 53.2336C26.2154 54.4723 26.1812 55.7737 26.391 57.093Z" fill="white"/>
<path fill-rule="evenodd" clip-rule="evenodd" d="M25.488 47.4502C24.8517 47.5532 24.2245 47.6854 23.6088 47.8399C23.0797 49.5759 22.7604 51.3924 22.676 53.256C25.0798 51.7665 27.8119 50.7182 30.7744 50.2434C31.2419 50.1672 31.7071 50.1112 32.1724 50.0664C32.4917 49.2085 32.8953 48.3932 33.4039 47.6406C30.8702 47.1075 28.1973 47.0201 25.488 47.4502Z" fill="white"/>
<path fill-rule="evenodd" clip-rule="evenodd" d="M40.5673 46.5811H38.8774L34.6287 54.1251H36.3733L37.8443 51.3745H41.4704L42.9117 54.1251H44.8753L40.5673 46.5811ZM38.5125 50.0955L39.6642 48.0527L40.7452 50.0955H38.5125Z" fill="white"/>
<path fill-rule="evenodd" clip-rule="evenodd" d="M36.8932 44.339C33.3378 40.8313 28.6352 38.56 23.5267 38.0739C21.9189 40.5289 20.7946 43.3086 20.2632 46.2608C21.2096 45.9741 22.1857 45.7456 23.1892 45.5844C27.0183 44.9706 30.7721 45.3895 34.1747 46.6326C34.9433 45.7344 35.8601 44.9572 36.8932 44.339Z" fill="white"/>
<path d="M161.242 41.3016V44.3009H154.945V54.7881H151.892V55.3279H155.49V44.8362H161.782V41.3016H161.242Z" fill="#0B783D"/>
<path d="M150.683 44.3009H145.438V44.8362H150.683V44.3009Z" fill="#0B783D"/>
<path d="M167.356 39.8031H170.446L178.317 53.2896H174.729L172.084 48.3708H165.504L162.781 53.2896H159.598L167.356 39.8031ZM170.761 46.0838L168.795 42.4261L166.722 46.0838H170.761Z" fill="#0B783D"/>
<path d="M77.6449 39.8036H80.7328L88.6031 53.29H85.0134L82.3816 48.3712H75.7565L73.0723 53.29H69.884L77.6449 39.8036ZM81.0589 46.0843L79.0839 42.4265L76.9766 46.0843H81.0589Z" fill="#0B783D"/>
<path d="M89.9509 39.8031H101.723C102.243 39.8031 102.654 39.8255 102.946 39.8815C103.242 39.9353 103.52 40.0361 103.78 40.1862C104.168 40.4012 104.435 40.7013 104.581 41.0776C104.722 41.4495 104.797 42.0206 104.797 42.7733V45.9853C104.797 46.4445 104.779 46.8006 104.74 47.0448C104.704 47.2956 104.631 47.5308 104.526 47.7615C104.33 48.1983 104.02 48.5029 103.596 48.6776C103.165 48.8501 102.542 48.9375 101.721 48.9375H93.1323V53.2896H89.9463V39.8031H89.9509ZM100.266 46.0838C100.747 46.0838 101.094 46.0054 101.297 45.8509C101.502 45.6941 101.602 45.4455 101.602 45.0983V43.779C101.602 43.4295 101.502 43.1809 101.297 43.0353C101.092 42.8875 100.747 42.8136 100.266 42.8136H93.1368V46.0838H100.266Z" fill="#0B783D"/>
<path d="M107.936 39.8031H119.71C120.23 39.8031 120.641 39.8255 120.933 39.8815C121.229 39.9353 121.505 40.0361 121.767 40.1862C122.162 40.4012 122.422 40.7013 122.57 41.0776C122.716 41.4495 122.787 42.0206 122.787 42.7733V45.9853C122.787 46.4445 122.768 46.8006 122.734 47.0448C122.695 47.2956 122.62 47.5308 122.515 47.7615C122.321 48.1983 122.011 48.5029 121.585 48.6776C121.158 48.8501 120.536 48.9375 119.712 48.9375H111.126V53.2896H107.938V39.8031H107.936ZM118.251 46.0838C118.734 46.0838 119.076 46.0054 119.279 45.8509C119.484 45.6941 119.587 45.4455 119.587 45.0983V43.779C119.587 43.4295 119.484 43.1809 119.279 43.0353C119.074 42.8875 118.734 42.8136 118.251 42.8136H111.124V46.0838H118.251Z" fill="#0B783D"/>
<path d="M141.973 50.315C141.973 50.8683 141.921 51.3364 141.814 51.715C141.716 52.0958 141.545 52.4026 141.303 52.6311C141.068 52.8663 140.756 53.0343 140.37 53.1373C139.987 53.2403 139.51 53.2874 138.947 53.2874H128.657C128.091 53.2874 127.619 53.2381 127.243 53.1373C126.86 53.0343 126.557 52.8663 126.319 52.6311C126.082 52.4004 125.911 52.0958 125.804 51.715C125.699 51.3364 125.649 50.8683 125.649 50.315V42.7733C125.649 41.6802 125.872 40.9141 126.319 40.4684C126.764 40.0227 127.544 39.8009 128.657 39.8009H138.947C139.51 39.8009 139.987 39.8524 140.37 39.9599C140.756 40.0719 141.068 40.2377 141.303 40.4662C141.545 40.6924 141.716 41.0015 141.814 41.3845C141.921 41.7653 141.973 42.229 141.973 42.771V50.315ZM138.79 50.2971V42.8136H128.839V50.2971H138.79Z" fill="#0B783D"/>
<path d="M153.41 53.2874H150.202V42.8136H143.907V39.8031H159.716V42.8136H153.41V53.2874Z" fill="#0B783D"/>
<defs>
<linearGradient id="paint0_linear_3091_14062" x1="58.0439" y1="50.2879" x2="50.2801" y2="50.2879" gradientUnits="userSpaceOnUse">
<stop stop-color="#5EAE46"/>
<stop offset="1" stop-color="#0F542D"/>
</linearGradient>
<linearGradient id="paint1_linear_3091_14062" x1="35.8639" y1="31.7717" x2="35.8639" y2="65.537" gradientUnits="userSpaceOnUse">
<stop stop-color="#5EAE46"/>
<stop offset="1" stop-color="#0F542D"/>
</linearGradient>
<linearGradient id="paint2_linear_3091_14062" x1="20.1711" y1="26.856" x2="51.5301" y2="26.856" gradientUnits="userSpaceOnUse">
<stop stop-color="#5EAE46"/>
<stop offset="1" stop-color="#0F542D"/>
</linearGradient>
</defs>
</svg>
